# Blender v2.78 (sub 0) OBJ File: ''
# www.blender.org
mtllib Cube.001.mtl
o Plane
v -0.500000 0.000000 -1.500000
v -0.500000 1.000000 0.500000
v -0.500000 -1.000000 0.500000
v 0.500000 -1.000000 0.500000
v -0.500000 0.000000 0.500000
v 0.500000 1.000000 0.500000
v 1.500000 0.000000 0.500000
v 0.500000 1.000000 -1.500000
v -0.500000 1.000000 -1.500000
v -0.500000 -1.000000 -0.500000
v -0.500000 1.000000 -0.500000
v 1.500000 1.000000 -0.500000
vn -1.0000 0.0000 -0.0000
vn 0.0000 1.0000 0.0000
vn 1.0000 0.0000 0.0000
vn -0.0000 0.0000 1.0000
usemtl None
s off
f 4//1 6//1 8//1
f 7//2 1//2 5//2
f 3//3 9//3 2//3
f 12//4 11//4 10//4
