# Blender v2.77 (sub 0) OBJ File: ''
# www.blender.org
mtllib d2.mtl
o Cube
v -1.722902 -0.994718 -0.000000
v -0.536024 -0.309474 -0.000000
v -0.606876 -0.927730 -0.500000
v -0.606876 -0.927730 0.500000
v -1.106876 -0.061705 -0.500000
v -1.106877 -0.061705 0.500000
v 1.722902 -0.994717 -0.000000
v 0.536024 -0.309474 0.000000
v 1.106876 -0.061705 -0.500000
v 1.106876 -0.061705 0.500000
v 0.606876 -0.927730 -0.500000
v 0.606877 -0.927730 0.500000
v 0.000000 1.989435 -0.000000
v 0.000000 0.618948 0.000000
v 0.500000 0.989435 -0.500000
v -0.500000 0.989436 -0.500000
v 0.500000 0.989435 0.500000
v -0.500000 0.989436 0.500000
vt 0.0029 0.6657
vt 0.3343 0.6657
vt 0.3343 0.9971
vt 0.3343 0.6657
vt 0.0029 0.6657
vt 0.0029 0.3343
vt 0.3343 0.3343
vt 0.3343 0.0029
vt 0.6657 0.0029
vt 0.9971 0.3343
vt 0.6657 0.3343
vt 0.9971 0.0029
vt 0.1939 0.1939
vt 0.3343 0.3343
vt 0.0029 0.3343
vt 0.1432 0.1939
vt 0.0029 0.0029
vt 0.1939 0.1432
vt 0.3343 0.0029
vt 0.1432 0.1432
vt 0.0029 0.6657
vt 0.3343 0.6657
vt 0.3343 0.9971
vt 0.3343 0.6657
vt 0.0029 0.6657
vt 0.0029 0.3343
vt 0.3343 0.3343
vt 0.3343 0.0029
vt 0.6657 0.0029
vt 0.9971 0.3343
vt 0.6657 0.3343
vt 0.9971 0.0029
vt 0.1939 0.1939
vt 0.3343 0.3343
vt 0.0029 0.3343
vt 0.1432 0.1939
vt 0.0029 0.0029
vt 0.1939 0.1432
vt 0.3343 0.0029
vt 0.1432 0.1432
vt 0.0029 0.6657
vt 0.3343 0.6657
vt 0.3343 0.9971
vt 0.3343 0.6657
vt 0.0029 0.6657
vt 0.0029 0.3343
vt 0.3343 0.3343
vt 0.3343 0.0029
vt 0.6657 0.0029
vt 0.9971 0.3343
vt 0.6657 0.3343
vt 0.9971 0.0029
vt 0.1939 0.1939
vt 0.3343 0.3343
vt 0.0029 0.3343
vt 0.1432 0.1939
vt 0.0029 0.0029
vt 0.1939 0.1432
vt 0.3343 0.0029
vt 0.1432 0.1432
vn 0.0599 -0.9982 0.0000
vn -0.8345 0.5510 -0.0000
vn -0.3873 -0.2236 -0.8944
vn -0.3873 -0.2236 0.8944
vn 0.9935 -0.1139 0.0000
vn 0.6958 0.4017 -0.5953
vn 0.6958 0.4017 0.5953
vn 0.3981 0.9173 0.0000
vn 0.8345 0.5510 0.0000
vn -0.0599 -0.9982 -0.0000
vn 0.3873 -0.2236 -0.8944
vn 0.3873 -0.2236 0.8944
vn -0.3981 0.9173 0.0000
vn -0.6958 0.4017 -0.5953
vn -0.6958 0.4017 0.5953
vn -0.9935 -0.1139 0.0000
vn 0.0000 0.4472 -0.8944
vn 0.0000 0.4472 0.8944
vn 0.8944 0.4472 0.0000
vn -0.8944 0.4472 -0.0000
vn -0.0000 -0.8035 -0.5953
vn 0.5953 -0.8035 -0.0000
vn -0.5953 -0.8035 0.0000
vn -0.0000 -0.8035 0.5953
usemtl Material
s off
f 1/1/1 3/2/1 4/3/1
f 1/4/2 6/5/2 5/6/2
f 1/7/3 5/8/3 3/9/3
f 4/10/4 6/11/4 1/12/4
f 2/13/5 4/14/5 3/15/5
f 2/16/6 3/15/6 5/17/6
f 2/18/7 6/19/7 4/14/7
f 2/20/8 5/17/8 6/19/8
f 7/21/9 9/22/9 10/23/9
f 7/24/10 12/25/10 11/26/10
f 7/27/11 11/28/11 9/29/11
f 10/30/12 12/31/12 7/32/12
f 8/33/13 10/34/13 9/35/13
f 8/36/14 9/35/14 11/37/14
f 8/38/15 12/39/15 10/34/15
f 8/40/16 11/37/16 12/39/16
f 13/41/17 15/42/17 16/43/17
f 13/44/18 18/45/18 17/46/18
f 13/47/19 17/48/19 15/49/19
f 16/50/20 18/51/20 13/52/20
f 14/53/21 16/54/21 15/55/21
f 14/56/22 15/55/22 17/57/22
f 14/58/23 18/59/23 16/54/23
f 14/60/24 17/57/24 18/59/24
