# Blender v2.78 (sub 0) OBJ File: ''
# www.blender.org
mtllib s3a.mtl
o Sphere
v -0.511500 0.001068 0.003874
v -0.289278 0.278845 0.281652
v -0.386500 0.376068 0.003874
v -0.289278 0.278845 -0.273904
v -0.386500 0.001068 -0.371126
v -0.289278 -0.276710 -0.273904
v -0.386500 -0.373932 0.003874
v -0.289278 -0.276710 0.281652
v -0.386500 0.001068 0.378874
v -0.011500 0.001068 -0.496126
v -0.011500 0.376068 -0.371126
v 0.266277 0.278845 -0.273904
v 0.363500 0.001068 -0.371126
v 0.266277 -0.276710 -0.273904
v -0.011500 -0.373932 -0.371126
v 0.488500 0.001068 0.003874
v 0.363500 0.376068 0.003874
v 0.266277 0.278845 0.281652
v 0.363500 0.001068 0.378874
v 0.266277 -0.276710 0.281652
v 0.363500 -0.373932 0.003874
v -0.011500 0.001068 0.503874
v -0.011500 0.376068 0.378874
v -0.011500 -0.373932 0.378874
v -0.011500 -0.498932 0.003874
v -0.011500 0.501068 0.003874
vt 0.5001 0.5227
vt 0.6934 0.5611
vt 0.6409 0.7448
vt 0.0068 0.5227
vt 0.1292 0.2950
vt 0.1569 0.4327
vt 0.2001 0.5611
vt 0.1476 0.7448
vt 0.6225 0.2950
vt 0.6502 0.4327
vt 0.2533 0.3749
vt 0.2148 0.2302
vt 0.3066 0.1887
vt 0.3498 0.3171
vt 0.3775 0.4548
vt 0.2919 0.5196
vt 0.4999 0.2272
vt 0.3591 0.0051
vt 0.9932 0.2272
vt 0.8708 0.4548
vt 0.8431 0.3171
vt 0.7999 0.1887
vt 0.8524 0.0051
vt 0.7467 0.3749
vt 0.7852 0.5196
vt 0.7081 0.2302
vt 0.6482 0.0051
vt 0.5001 0.2163
vt 0.3518 0.7448
vt 0.4999 0.5336
vt 0.8452 0.7448
vt 0.9932 0.5336
vt 0.1548 0.0051
vt 0.0068 0.2163
vn -1.0000 0.0000 -0.0000
vn -0.5774 0.5773 0.5774
vn -0.7071 0.7071 0.0000
vn -0.5774 0.5773 -0.5774
vn -0.7071 0.0000 -0.7071
vn -0.5774 -0.5774 -0.5774
vn -0.7071 -0.7071 -0.0000
vn -0.5774 -0.5774 0.5774
vn -0.7071 0.0000 0.7071
vn 0.0000 0.0000 -1.0000
vn 0.0000 0.7071 -0.7071
vn 0.5773 0.5774 -0.5774
vn 0.7071 0.0000 -0.7071
vn 0.5773 -0.5774 -0.5774
vn 0.0000 -0.7071 -0.7071
vn 1.0000 0.0000 -0.0000
vn 0.7071 0.7071 0.0000
vn 0.5773 0.5773 0.5774
vn 0.7071 0.0000 0.7071
vn 0.5773 -0.5774 0.5774
vn 0.7071 -0.7071 -0.0000
vn 0.0000 0.0000 1.0000
vn 0.0000 0.7071 0.7071
vn 0.0000 -0.7071 0.7071
vn 0.0000 -1.0000 -0.0000
vn 0.0000 1.0000 0.0000
usemtl Material.001
s 1
f 1/1/1 2/2/2 3/3/3
f 1/4/1 4/5/4 5/6/5
f 1/4/1 6/7/6 7/8/7
f 1/1/1 8/9/8 9/10/9
f 10/11/10 4/5/4 11/12/11
f 10/11/10 12/13/12 13/14/13
f 10/11/10 14/15/14 15/16/15
f 10/11/10 6/7/6 5/6/5
f 16/17/16 12/13/12 17/18/17
f 16/19/16 18/20/18 19/21/19
f 16/19/16 20/22/20 21/23/21
f 16/17/16 14/15/14 13/14/13
f 22/24/22 18/20/18 23/25/23
f 22/24/22 2/2/2 9/10/9
f 22/24/22 8/9/8 24/26/24
f 22/24/22 20/22/20 19/21/19
f 25/27/25 8/9/8 7/28/7
f 25/29/25 6/7/6 15/16/15
f 25/29/25 14/15/14 21/30/21
f 25/27/25 20/22/20 24/26/24
f 26/31/26 18/20/18 17/32/17
f 26/33/26 12/13/12 11/12/11
f 26/33/26 4/5/4 3/34/3
f 26/31/26 2/2/2 23/25/23
f 1/1/1 9/10/9 2/2/2
f 1/4/1 3/34/3 4/5/4
f 1/4/1 5/6/5 6/7/6
f 1/1/1 7/28/7 8/9/8
f 10/11/10 5/6/5 4/5/4
f 10/11/10 11/12/11 12/13/12
f 10/11/10 13/14/13 14/15/14
f 10/11/10 15/16/15 6/7/6
f 16/17/16 13/14/13 12/13/12
f 16/19/16 17/32/17 18/20/18
f 16/19/16 19/21/19 20/22/20
f 16/17/16 21/30/21 14/15/14
f 22/24/22 19/21/19 18/20/18
f 22/24/22 23/25/23 2/2/2
f 22/24/22 9/10/9 8/9/8
f 22/24/22 24/26/24 20/22/20
f 25/27/25 24/26/24 8/9/8
f 25/29/25 7/8/7 6/7/6
f 25/29/25 15/16/15 14/15/14
f 25/27/25 21/23/21 20/22/20
f 26/31/26 23/25/23 18/20/18
f 26/33/26 17/18/17 12/13/12
f 26/33/26 11/12/11 4/5/4
f 26/31/26 3/3/3 2/2/2
